<svg xmlns="http://www.w3.org/2000/svg" viewBox="0 0 2305 540.87"><g id="Layer_2" data-name="Layer 2"><g id="Layer_1-2" data-name="Layer 1"><polygon points="682.98 0 656.71 0 656.71 540.74 999.7 540.74 999.7 516.8 682.98 516.8 682.98 0"/><polygon points="1624.63 0 1376.66 432.6 1127.92 0 1106.29 0 1106.29 540.74 1131.79 540.74 1131.79 54.85 1369.71 465.81 1383.62 465.81 1620.77 53.3 1621.54 540.74 1647.04 540.74 1646.26 0 1624.63 0"/><polygon points="474.63 0 0 540.87 20.71 540.87 34.62 540.87 470.77 53.3 471.54 540.74 497.04 540.74 496.26 0 474.63 0"/><polygon points="1830.43 0 1808.81 0 1808.04 540.74 1833.53 540.74 1834.3 53.3 2270.39 540.87 2284.29 540.87 2305 540.87 1830.43 0"/></g></g></svg>